# xmcd
#
# Track frame offsets:
#	150
#	17075
#	33740
#	51727
#	72760
#	94117
#	111677
#	128360
#	145505
#	161505
#	179760
#	200465
#	220115
#	236800
#	255100
#
# Disc length: 3690 seconds
#
# Revision: 1
# Processed by: cddbd v1.5.1PL0 Copyright (c) Steve Scherf et al.
# Submitted via: audiograbber 1.83.01
#
DISCID=d90e680f
DTITLE=Various Artist - Entertainer Series # 9022
DYEAR=1900
DGENRE=Country
TTITLE0=Clay Walker - Live, Laugh, Love
TTITLE1=Lonestar - Smile
TTITLE2=Keith Urban - It's A Love Thing
TTITLE3=Brad Paisley - He Didn't have To Be
TTITLE4=Clay Walker - The Chain Of Love
TTITLE5=Kenny Rogers - Buy me A Rose
TTITLE6=Neal McCoy - Forever Works For Me
TTITLE7=Warren Brothers and Sara Evans - That's The Beat Of A heart
TTITLE8=Chad Brock - Yes!
TTITLE9=Trisha Yearwood - Real Live Woman
TTITLE10=Reba McEntire - I'll Be
TTITLE11=lee Ann Warwick - I Hope You Dance
TTITLE12=Jennifer Day - The Fun Of Love
TTITLE13=SheDaisy - I Will...But
TTITLE14=Dixie Chicks - Cold Day In July
EXTD=
EXTT0=
EXTT1=
EXTT2=
EXTT3=
EXTT4=
EXTT5=
EXTT6=
EXTT7=
EXTT8=
EXTT9=
EXTT10=
EXTT11=
EXTT12=
EXTT13=
EXTT14=
PLAYORDER=
